<<<<<<< HEAD
ffmpeg version 2025-06-28-git-cfd1f81e7d-full_build-www.gyan.dev Copyright (c) 2000-2025 the FFmpeg developers
  built with gcc 15.1.0 (Rev4, Built by MSYS2 project)
  configuration: --enable-gpl --enable-version3 --enable-static --disable-w32threads --disable-autodetect --enable-fontconfig --enable-iconv --enable-gnutls --enable-lcms2 --enable-libxml2 --enable-gmp --enable-bzlib --enable-lzma --enable-libsnappy --enable-zlib --enable-librist --enable-libsrt --enable-libssh --enable-libzmq --enable-avisynth --enable-libbluray --enable-libcaca --enable-libdvdnav --enable-libdvdread --enable-sdl2 --enable-libaribb24 --enable-libaribcaption --enable-libdav1d --enable-libdavs2 --enable-libopenjpeg --enable-libquirc --enable-libuavs3d --enable-libxevd --enable-libzvbi --enable-liboapv --enable-libqrencode --enable-librav1e --enable-libsvtav1 --enable-libvvenc --enable-libwebp --enable-libx264 --enable-libx265 --enable-libxavs2 --enable-libxeve --enable-libxvid --enable-libaom --enable-libjxl --enable-libvpx --enable-mediafoundation --enable-libass --enable-frei0r --enable-libfreetype --enable-libfribidi --enable-libharfbuzz --enable-liblensfun --enable-libvidstab --enable-libvmaf --enable-libzimg --enable-amf --enable-cuda-llvm --enable-cuvid --enable-dxva2 --enable-d3d11va --enable-d3d12va --enable-ffnvcodec --enable-libvpl --enable-nvdec --enable-nvenc --enable-vaapi --enable-libshaderc --enable-vulkan --enable-libplacebo --enable-opencl --enable-libcdio --enable-openal --enable-libgme --enable-libmodplug --enable-libopenmpt --enable-libopencore-amrwb --enable-libmp3lame --enable-libshine --enable-libtheora --enable-libtwolame --enable-libvo-amrwbenc --enable-libcodec2 --enable-libilbc --enable-libgsm --enable-liblc3 --enable-libopencore-amrnb --enable-libopus --enable-libspeex --enable-libvorbis --enable-ladspa --enable-libbs2b --enable-libflite --enable-libmysofa --enable-librubberband --enable-libsoxr --enable-chromaprint
  libavutil      60.  3.100 / 60.  3.100
  libavcodec     62.  4.100 / 62.  4.100
  libavformat    62.  1.101 / 62.  1.101
  libavdevice    62.  0.100 / 62.  0.100
  libavfilter    11.  0.100 / 11.  0.100
  libswscale      9.  0.100 /  9.  0.100
  libswresample   6.  0.100 /  6.  0.100
[mov,mp4,m4a,3gp,3g2,mj2 @ 000002c44c930300] Auto-inserting h264_mp4toannexb bitstream filter
Input #0, concat, from 'temp.txt':
  Duration: N/A, start: -0.021333, bitrate: 8458 kb/s
  Stream #0:0(und): Video: h264 (Main) (avc1 / 0x31637661), yuv420p(progressive), 1080x1920 [SAR 1:1 DAR 9:16], 8343 kb/s, 60 fps, 60 tbr, 15360 tbn
=======
ffmpeg version 2025-10-12-git-0bc54cddb1-full_build-www.gyan.dev Copyright (c) 2000-2025 the FFmpeg developers
  built with gcc 15.2.0 (Rev8, Built by MSYS2 project)
  configuration: --enable-gpl --enable-version3 --enable-static --disable-w32threads --disable-autodetect --enable-fontconfig --enable-iconv --enable-gnutls --enable-lcms2 --enable-libxml2 --enable-gmp --enable-bzlib --enable-lzma --enable-libsnappy --enable-zlib --enable-librist --enable-libsrt --enable-libssh --enable-libzmq --enable-avisynth --enable-libbluray --enable-libcaca --enable-libdvdnav --enable-libdvdread --enable-sdl2 --enable-libaribb24 --enable-libaribcaption --enable-libdav1d --enable-libdavs2 --enable-libopenjpeg --enable-libquirc --enable-libuavs3d --enable-libxevd --enable-libzvbi --enable-liboapv --enable-libqrencode --enable-librav1e --enable-libsvtav1 --enable-libvvenc --enable-libwebp --enable-libx264 --enable-libx265 --enable-libxavs2 --enable-libxeve --enable-libxvid --enable-libaom --enable-libjxl --enable-libvpx --enable-mediafoundation --enable-libass --enable-frei0r --enable-libfreetype --enable-libfribidi --enable-libharfbuzz --enable-liblensfun --enable-libvidstab --enable-libvmaf --enable-libzimg --enable-amf --enable-cuda-llvm --enable-cuvid --enable-dxva2 --enable-d3d11va --enable-d3d12va --enable-ffnvcodec --enable-libvpl --enable-nvdec --enable-nvenc --enable-vaapi --enable-libshaderc --enable-vulkan --enable-libplacebo --enable-opencl --enable-libcdio --enable-openal --enable-libgme --enable-libmodplug --enable-libopenmpt --enable-libopencore-amrwb --enable-libmp3lame --enable-libshine --enable-libtheora --enable-libtwolame --enable-libvo-amrwbenc --enable-libcodec2 --enable-libilbc --enable-libgsm --enable-liblc3 --enable-libopencore-amrnb --enable-libopus --enable-libspeex --enable-libvorbis --enable-ladspa --enable-libbs2b --enable-libflite --enable-libmysofa --enable-librubberband --enable-libsoxr --enable-chromaprint --enable-whisper
  libavutil      60. 13.100 / 60. 13.100
  libavcodec     62. 16.100 / 62. 16.100
  libavformat    62.  6.101 / 62.  6.101
  libavdevice    62.  2.100 / 62.  2.100
  libavfilter    11.  9.100 / 11.  9.100
  libswscale      9.  3.100 /  9.  3.100
  libswresample   6.  2.100 /  6.  2.100
[mov,mp4,m4a,3gp,3g2,mj2 @ 0000020dffb10200] Auto-inserting h264_mp4toannexb bitstream filter
Input #0, concat, from 'temp.txt':
  Duration: N/A, start: -0.021333, bitrate: 12017 kb/s
  Stream #0:0(eng): Video: h264 (Main) (avc1 / 0x31637661), yuv420p(progressive), 1080x1920 [SAR 1:1 DAR 9:16], 11853 kb/s, 60 fps, 60 tbr, 15360 tbn
>>>>>>> 3ad8966 (limit error)
    Metadata:
      handler_name    : ?Mainconcept Video Media Handler
      vendor_id       : [0][0][0][0]
<<<<<<< HEAD
      encoder         : Lavc62.4.100 h264_nvenc
  Stream #0:1(und): Audio: aac (LC) (mp4a / 0x6134706D), 48000 Hz, stereo, fltp, 115 kb/s, start -0.021333
=======
      encoder         : Lavc62.16.100 h264_nvenc
  Stream #0:1(eng): Audio: aac (LC) (mp4a / 0x6134706D), 48000 Hz, stereo, fltp, 163 kb/s, start -0.021333
>>>>>>> 3ad8966 (limit error)
    Metadata:
      handler_name    : #Mainconcept MP4 Sound Media Handler
      vendor_id       : [0][0][0][0]
Stream mapping:
  Stream #0:0 -> #0:0 (copy)
  Stream #0:1 -> #0:1 (copy)
<<<<<<< HEAD
Output #0, mp4, to 'temp_16272.mp4':
  Metadata:
    encoder         : Lavf62.1.101
  Stream #0:0(und): Video: h264 (Main) (avc1 / 0x31637661), yuv420p(progressive), 1080x1920 [SAR 1:1 DAR 9:16], q=2-31, 8343 kb/s, 60 fps, 60 tbr, 15360 tbn
=======
Output #0, mp4, to 'temp_8228.mp4':
  Metadata:
    encoder         : Lavf62.6.101
  Stream #0:0(eng): Video: h264 (Main) (avc1 / 0x31637661), yuv420p(progressive), 1080x1920 [SAR 1:1 DAR 9:16], q=2-31, 11853 kb/s, 60 fps, 60 tbr, 15360 tbn
>>>>>>> 3ad8966 (limit error)
    Metadata:
      handler_name    : ?Mainconcept Video Media Handler
      vendor_id       : [0][0][0][0]
<<<<<<< HEAD
      encoder         : Lavc62.4.100 h264_nvenc
  Stream #0:1(und): Audio: aac (LC) (mp4a / 0x6134706D), 48000 Hz, stereo, fltp, 115 kb/s
=======
      encoder         : Lavc62.16.100 h264_nvenc
  Stream #0:1(eng): Audio: aac (LC) (mp4a / 0x6134706D), 48000 Hz, stereo, fltp, 163 kb/s
>>>>>>> 3ad8966 (limit error)
    Metadata:
      handler_name    : #Mainconcept MP4 Sound Media Handler
      vendor_id       : [0][0][0][0]
Press [q] to stop, [?] for help
<<<<<<< HEAD
[mov,mp4,m4a,3gp,3g2,mj2 @ 000002c44cd20480] Auto-inserting h264_mp4toannexb bitstream filter
[mov,mp4,m4a,3gp,3g2,mj2 @ 000002c44c93bd40] Auto-inserting h264_mp4toannexb bitstream filter
[mov,mp4,m4a,3gp,3g2,mj2 @ 000002c44d021040] Auto-inserting h264_mp4toannexb bitstream filter
    Last message repeated 1 times
[mov,mp4,m4a,3gp,3g2,mj2 @ 000002c44d021d80] Auto-inserting h264_mp4toannexb bitstream filter
[out#0/mp4 @ 000002c44c92ec00] video:41663KiB audio:667KiB subtitle:0KiB other streams:0KiB global headers:0KiB muxing overhead: 0.187459%
frame= 2880 fps=0.0 q=-1.0 Lsize=   42409KiB time=00:00:47.97 bitrate=7242.2kbits/s speed= 387x elapsed=0:00:00.12    
=======
[mov,mp4,m4a,3gp,3g2,mj2 @ 0000020d8041ef80] Auto-inserting h264_mp4toannexb bitstream filter
[aost#0:1/copy @ 0000020d801fe480] Non-monotonic DTS; previous: 1368064, current: 1368048; changing to 1368065. This may result in incorrect timestamps in the output file.
[out#0/mp4 @ 0000020d8036a840] video:84710KiB audio:1179KiB subtitle:0KiB other streams:0KiB global headers:0KiB muxing overhead: 0.111882%
frame= 3506 fps=0.0 q=-1.0 Lsize=   85984KiB time=00:00:58.40 bitrate=12060.2kbits/s speed= 523x elapsed=0:00:00.11    
>>>>>>> 3ad8966 (limit error)
